<?xml version="1.0" encoding="UTF-8"?>
<svg width="107px" height="123px" viewBox="0 0 107 123" version="1.1" xmlns="http://www.w3.org/2000/svg" xmlns:xlink="http://www.w3.org/1999/xlink">
    <!-- Generator: Sketch 42 (36781) - http://www.bohemiancoding.com/sketch -->
    <title>Dancing</title>
    <desc>Created with Sketch.</desc>
    <defs>
        <path d="M85.3515152,17.8192856 C85.3515152,16.9051955 86.0955422,16.1641791 87.0165681,16.1641791 L88.7288864,16.1641791 C89.6484698,16.1641791 90.3939394,16.9100214 90.3939394,17.8192856 L90.3939394,21.2189055 L87.0165681,21.2189055 C86.0969848,21.2189055 85.3515152,20.4730632 85.3515152,19.563799 L85.3515152,17.8192856 Z" id="path-1"></path>
        <mask id="mask-2" maskContentUnits="userSpaceOnUse" maskUnits="objectBoundingBox" x="-2" y="-2" width="9.04242424" height="9.05472637">
            <rect x="83.3515152" y="14.1641791" width="9.04242424" height="9.05472637" fill="white"></rect>
            <use xlink:href="#path-1" fill="black"></use>
        </mask>
        <path d="M96.6969697,21.714808 C96.6969697,20.8007179 97.4409968,20.0597015 98.3620227,20.0597015 L100.074341,20.0597015 C100.993924,20.0597015 101.739394,20.8055438 101.739394,21.714808 L101.739394,25.1144279 L98.3620227,25.1144279 C97.4424393,25.1144279 96.6969697,24.3685856 96.6969697,23.4593214 L96.6969697,21.714808 Z" id="path-3"></path>
        <mask id="mask-4" maskContentUnits="userSpaceOnUse" maskUnits="objectBoundingBox" x="-2" y="-2" width="9.04242424" height="9.05472637">
            <rect x="94.6969697" y="18.0597015" width="9.04242424" height="9.05472637" fill="white"></rect>
            <use xlink:href="#path-3" fill="black"></use>
        </mask>
        <path d="M0,28.5058527 C0,27.5917627 0.744027063,26.8507463 1.66505297,26.8507463 L3.37737127,26.8507463 C4.29695463,26.8507463 5.04242424,27.5965886 5.04242424,28.5058527 L5.04242424,31.9054726 L1.66505297,31.9054726 C0.745469609,31.9054726 0,31.1596304 0,30.2503662 L0,28.5058527 Z" id="path-5"></path>
        <mask id="mask-6" maskContentUnits="userSpaceOnUse" maskUnits="objectBoundingBox" x="-2" y="-2" width="9.04242424" height="9.05472637">
            <rect x="-2" y="24.8507463" width="9.04242424" height="9.05472637" fill="white"></rect>
            <use xlink:href="#path-5" fill="black"></use>
        </mask>
    </defs>
    <g id="Icons" stroke="none" stroke-width="1" fill="none" fill-rule="evenodd">
        <g id="Dancing" transform="translate(3.000000, 0.000000)" stroke="#0FB6BC">
            <path d="M46.8356737,39.7014925 C71.15413,39.7014925 74.6363636,95.3034826 74.6363636,95.3034826 L16.6484848,95.3034826 C16.6484848,95.3034826 22.5172174,39.7014925 46.8356737,39.7014925 Z" id="Rectangle-9-Copy" stroke-width="2"></path>
            <path d="M58.8787879,44.4278962 L75.45209,43.3836405 C80.0358347,43.0948265 83.9826132,46.5718853 84.2677969,51.1551806 L85.0411566,63.5841358 C85.2125629,66.3388708 83.1237327,68.6155945 80.3589998,68.6696657 L80.4171647,68.6685282 C77.6598746,68.7224538 75.2905086,66.5262797 75.126797,63.7926111 L74.5661491,54.4308768 L64.9598985,54.2474723 L58.8787879,44.4278962 Z" id="Path-5-Copy" stroke-width="2"></path>
            <path d="M36.8181818,42.6806179 L21.3764384,46.4181821 L17.0451772,36.8929343 C15.9023836,34.3797189 12.9525759,33.3069487 10.4773426,34.4869452 L10.1495699,34.6432015 C7.66504858,35.8276258 6.50317042,38.8421694 7.56210846,41.3948528 L13.7922616,56.4133035 C14.4963112,58.1104905 16.553313,59.3937706 18.3864456,59.279606 L19.8203974,59.1903018 C20.6588508,59.1380843 21.9130057,58.7512033 22.6379587,58.3163858 L26.7064033,55.8761851 L36.8181818,42.6806179 Z" id="Path-6-Copy" stroke-width="2"></path>
            <path d="M22.3463149,95.3034826 L22.3463149,98.2719927 L16.1575185,104.336752 C13.5339788,106.907709 13.4299038,111.174153 15.9229786,113.863874 L15.5187044,113.427712 C18.0127113,116.118438 22.1951651,116.258942 24.8738593,113.728895 L44.3818182,95.3034826 L22.3463149,95.3034826 Z" id="Path-7-Copy" stroke-width="2"></path>
            <path d="M48.1636364,95.3034826 L50.9812222,118.711125 C51.4203115,122.358945 54.7451966,125.160224 58.4242428,124.967081 L57.7234657,125.00387 C61.3950431,124.811119 64.165087,121.678971 63.9108715,118.01292 L62.3361277,95.3034826 L48.1636364,95.3034826 Z" id="Path-8-Copy" stroke-width="2"></path>
            <path d="M21.6909091,29.5920398 L71.4848485,29.5920398 L71.0182664,19.460859 C71.0182664,19.460859 69.5236858,13.7425438 63.5092711,8.52087284 C57.4948564,3.29920192 48.5925831,1.55573772 46.4524142,0.849402434 C41.8537558,-0.668325755 45.0437133,3.67128871 36.1178649,3.67128871 C27.1920165,3.67128871 22.5199883,19.717468 22.5199883,19.717468 L21.6909091,29.5920398 Z" id="Path-9-Copy" stroke-width="2"></path>
            <path d="M39.2415024,10.0049751 C34.8049059,12.3501141 31.7757576,17.0570681 31.7757576,22.4814257 C31.7757576,30.2470258 37.9840757,36.5422886 45.6424242,36.5422886 L45.6424242,36.5422886 C53.3007728,36.5422886 59.5090909,30.2470258 59.5090909,22.4814257" id="Oval-4-Copy" stroke-width="2" fill="#FFFFFF"></path>
            <path d="M36.8181818,6.21393035 C36.8181818,6.21393035 45.2529301,20.1258898 66.4424242,22.0099502" id="Path-10-Copy" stroke-width="2" stroke-linecap="round"></path>
            <path d="M18.1130125,87 L74.0060606,87" id="Line-Copy-6" stroke-width="2" stroke-linecap="square"></path>
            <path d="M21.9090909,69 L43.1212121,69" id="Line-Copy-5" stroke-width="2" stroke-linecap="round"></path>
            <use id="Rectangle-10-Copy-5" mask="url(#mask-2)" stroke-width="4" xlink:href="#path-1"></use>
            <polyline id="Line-Copy-4" stroke-width="2" stroke-linecap="square" points="91.6545455 22.2507097 91.6545455 3 103 6.15382402 103 25.7462687"></polyline>
            <use id="Rectangle-10-Copy-2" mask="url(#mask-4)" stroke-width="4" xlink:href="#path-3"></use>
            <use id="Rectangle-10-Copy-4" mask="url(#mask-6)" stroke-width="4" xlink:href="#path-5"></use>
            <polyline id="Line-Copy-3" stroke-width="2" stroke-linecap="square" points="6.3030303 32.641791 6.3030303 13.6865672 8.82424242 15.0266037"></polyline>
        </g>
    </g>
</svg>