<?xml version="1.0" encoding="iso-8859-1"?>
<!-- Generator: Adobe Illustrator 18.0.0, SVG Export Plug-In . SVG Version: 6.00 Build 0)  -->
<!DOCTYPE svg PUBLIC "-//W3C//DTD SVG 1.1//EN" "http://www.w3.org/Graphics/SVG/1.1/DTD/svg11.dtd">
<svg version="1.1" id="Capa_1" xmlns="http://www.w3.org/2000/svg" xmlns:xlink="http://www.w3.org/1999/xlink" x="0px" y="0px"
	 viewBox="0 0 483.499 483.499" style="enable-background:new 0 0 483.499 483.499;" xml:space="preserve">
<g>
	<path d="M165.518,118.528c0.344-0.021,34.589-2.172,48.704,8.673c0.049,0.038,0.103,0.063,0.153,0.099
		c10.059,8.367,22.976,13.408,37.052,13.408c13.675,0,26.469-4.84,36.548-13.017c0.093-0.058,0.189-0.106,0.279-0.173
		c15.689-11.554,53.568-9.019,53.948-8.991c2.195,0.16,4.126-1.372,4.492-3.528c6.152-36.254-7.665-67.478-39.957-90.294
		C283.136,8.028,258.177,1.722,256.381,1.283C254.088,0.66,249.844,0,247.093,0c-8.411,0-13.955,3.913-17.93,8.022
		c-2.621-0.904-5.347-1.369-8.144-1.369c-6.64,0-12.895,2.534-17.632,7.141c-1.525,1.3-14.538,12.628-26.171,30.077
		c-16.282,24.422-21.849,49.139-16.098,71.477C161.627,117.328,163.472,118.668,165.518,118.528z M201.902,82.683
		c0-13.618,5.554-26.475,15.33-35.807c14.837,14.22,45.746,40.174,81.824,49.395c-5.99,21.029-25.451,35.937-47.628,35.937
		C224.119,132.208,201.902,109.991,201.902,82.683z M208.986,20.191c0.085-0.072,0.168-0.147,0.248-0.225
		c3.151-3.103,7.337-4.812,11.787-4.812c2.571,0,5.062,0.588,7.402,1.748c1.784,0.886,3.88,0.389,5.114-1.063l0.019-0.002
		c4.404-5.211,8.326-7.336,13.538-7.336c1.729,0,5.309,0.502,7.093,0.995c0.045,0.012,0.091,0.024,0.137,0.035
		c0.246,0.059,24.85,6.105,47.51,22.116c28.733,20.302,41.182,46.601,37.042,78.209c-7.373-0.251-23.677-0.292-38.065,3.273
		c2.858-4.61,5.083-9.667,6.564-15.058c4.883,0.863,9.839,1.402,14.849,1.534c0.038,0.001,0.075,0.001,0.113,0.001
		c2.296,0,4.186-1.83,4.247-4.139c0.062-2.346-1.791-4.298-4.138-4.36c-55.959-1.468-107.67-58.83-108.187-59.409
		c-1.561-1.753-4.247-1.91-5.999-0.349c-1.753,1.56-1.911,4.245-0.351,5.998c0.286,0.321,1.421,1.584,3.301,3.533
		c-11.357,10.919-17.807,25.917-17.807,41.801c0,11.043,3.103,21.373,8.48,30.17c-12.753-3.095-26.784-3.151-33.293-2.965
		C159.223,62.761,208.477,20.62,208.986,20.191z"/>
	<path d="M390.766,175.719c-0.004-0.046-0.008-0.091-0.012-0.132c-1.474-13.974-14.077-24.145-28.094-22.667l-65.221,6.843
		c-12.13-10.067-28.553-16.216-46.013-16.216c-11.149,0-21.868,2.497-31.317,6.905c-0.016,0.006-0.032,0.007-0.047,0.013
		l-51.11,19.274l-11.038-30.859c-4.77-13.266-19.476-20.166-32.782-15.382c-6.425,2.31-11.556,6.983-14.446,13.159
		c-2.884,6.162-3.199,13.096-0.89,19.518l19.659,54.958c0.003,0.008,0.006,0.017,0.009,0.025c0.006,0.019,0.013,0.037,0.019,0.054
		c3.732,10.379,13.565,16.85,24.035,16.849c2.869,0,5.787-0.486,8.639-1.511l14.841-5.305l-39.664,135.269
		c-0.377,1.285-0.127,2.672,0.676,3.743c0.803,1.072,2.063,1.703,3.402,1.703h16.923l-31.895,31.896
		c-11.351,11.35-11.351,29.819,0.001,41.17c5.498,5.499,12.808,8.526,20.584,8.527c0,0,0.001,0,0.001,0
		c7.776,0,15.086-3.028,20.581-8.522l73.258-73.071h10.423l9.864,95.435c0.805,7.735,4.572,14.694,10.61,19.594
		c5.237,4.25,11.638,6.511,18.291,6.511c1.017,0,2.04-0.053,3.065-0.16c15.967-1.66,27.605-16,25.944-31.98l-9.585-89.4h51.931
		c1.339,0,2.6-0.631,3.401-1.702c0.803-1.072,1.054-2.459,0.677-3.743l-43.382-147.987l20.439-2.117l3.391,32.673
		c0.715,6.792,4.05,12.899,9.389,17.197c4.61,3.711,10.228,5.684,16.059,5.684c0.907,0,1.82-0.047,2.734-0.144
		c6.79-0.715,12.885-4.034,17.161-9.344c4.268-5.3,6.223-11.96,5.508-18.746L390.766,175.719z M307.641,189.396l42.222,144.03
		H152.962l19.058-64.996h112.208c2.348,0,4.25-1.903,4.25-4.25c0-2.347-1.902-4.25-4.25-4.25H174.513l20.695-70.577
		c3.755-13.331,14.191-24.4,27.847-30.934l0.007-0.002c0.035-0.013,0.064-0.035,0.099-0.049c8.464-4.03,18.156-6.322,28.267-6.322
		C277.841,152.046,301.479,167.741,307.641,189.396z M159.29,218.547c-8.803,3.163-18.523-1.345-21.771-10.111
		c-0.014-0.045-0.029-0.09-0.042-0.129c-0.025-0.07-0.051-0.14-0.079-0.208l-19.601-54.795c-1.546-4.299-1.337-8.932,0.588-13.045
		c1.924-4.112,5.342-7.224,9.623-8.763c8.895-3.2,18.724,1.404,21.905,10.252l12.492,34.923c0.384,1.073,1.183,1.947,2.217,2.426
		c1.035,0.479,2.218,0.521,3.284,0.119l28.98-10.929c-4.525,5.584-7.926,11.895-9.848,18.717l-7.083,24.155L159.29,218.547z
		 M161.601,429.015c-3.894,3.894-9.07,6.037-14.576,6.037c-5.506,0-10.681-2.144-14.574-6.037
		c-8.037-8.037-8.038-21.114-0.001-29.149l37.906-37.907h58.472L161.601,429.015z M310.611,452.252
		c0.652,6.273-1.603,12.186-5.664,16.412l-9.487-68.308c-0.323-2.325-2.466-3.95-4.795-3.625c-2.324,0.323-3.947,2.469-3.625,4.794
		l10,72c0.011,0.079,0.038,0.151,0.054,0.228c-1.538,0.555-3.155,0.956-4.853,1.132c-5.474,0.567-10.846-1.027-15.121-4.497
		c-4.274-3.469-6.942-8.396-7.512-13.87l-9.773-94.559h41.096L310.611,452.252z M147.088,353.459l3.381-11.532h201.885l3.381,11.532
		H147.088z M384.657,247.144c-2.847,3.536-6.906,5.746-11.431,6.222c-4.541,0.48-9.007-0.838-12.571-3.708
		c-3.564-2.869-5.79-6.941-6.266-11.46l-3.828-36.893c-0.242-2.334-2.335-4.023-4.665-3.789l-26.221,2.716l-3.868-13.194
		c-2.038-7.163-5.688-13.765-10.555-19.549l58.297-6.117c9.293-0.979,17.678,5.716,18.739,14.993
		c0.002,0.033,0.005,0.064,0.007,0.093c0.007,0.077,0.015,0.153,0.025,0.229l6.011,57.926
		C388.81,239.157,387.505,243.607,384.657,247.144z"/>
	<path d="M98.726,33.645c-14.983-6.659-28.514-1.283-29.082-1.051c-1.599,0.653-2.644,2.208-2.644,3.935V72.1
		c-1.901-0.895-4.014-1.409-6.25-1.409C52.616,70.69,46,77.307,46,85.44s6.617,14.75,14.75,14.75c8.133,0,14.75-6.617,14.75-14.75
		V39.673c3.881-0.927,11.554-1.913,19.774,1.739c2.145,0.954,4.656-0.013,5.61-2.158C101.836,37.109,100.871,34.598,98.726,33.645z
		 M60.75,91.69c-3.446,0-6.25-2.804-6.25-6.25c0-3.446,2.804-6.25,6.25-6.25c3.446,0,6.25,2.804,6.25,6.25
		C66.999,88.887,64.196,91.69,60.75,91.69z"/>
	<path d="M434.976,55.145c-14.322-6.365-33.741-4.919-34.562-4.853c-2.21,0.174-3.915,2.02-3.915,4.237V90.1
		c-1.9-0.895-4.014-1.409-6.25-1.409c-8.133,0-14.75,6.617-14.75,14.75s6.617,14.75,14.75,14.75c8.133,0,14.75-6.617,14.75-14.75
		V58.624c5.449-0.067,15.578,0.29,24,3.284V94.6c-1.9-0.895-4.014-1.409-6.25-1.409c-8.133,0-14.75,6.617-14.75,14.75
		s6.617,14.75,14.75,14.75c8.133,0,14.75-6.617,14.75-14.75V59.028C437.5,57.349,436.51,55.827,434.976,55.145z M390.25,109.69
		c-3.446,0-6.25-2.804-6.25-6.25c0-3.446,2.804-6.25,6.25-6.25c3.446,0,6.25,2.804,6.25,6.25
		C396.5,106.887,393.696,109.69,390.25,109.69z M422.75,114.19c-3.446,0-6.25-2.804-6.25-6.25c0-3.446,2.804-6.25,6.25-6.25
		c3.446,0,6.25,2.804,6.25,6.25C429,111.387,426.196,114.19,422.75,114.19z"/>
</g>
<g>
</g>
<g>
</g>
<g>
</g>
<g>
</g>
<g>
</g>
<g>
</g>
<g>
</g>
<g>
</g>
<g>
</g>
<g>
</g>
<g>
</g>
<g>
</g>
<g>
</g>
<g>
</g>
<g>
</g>
</svg>
