<?xml version="1.0" encoding="UTF-8"?>
<svg width="124px" height="123px" viewBox="0 0 124 123" version="1.1" xmlns="http://www.w3.org/2000/svg" xmlns:xlink="http://www.w3.org/1999/xlink">
    <!-- Generator: Sketch 42 (36781) - http://www.bohemiancoding.com/sketch -->
    <title>Plane</title>
    <desc>Created with Sketch.</desc>
    <defs></defs>
    <g id="Icons" stroke="none" stroke-width="1" fill="none" fill-rule="evenodd">
        <g id="Plane" fill-rule="nonzero" fill="#0FB6BC">
            <path d="M102.391383,57.0716443 L98.8327326,50.3037159 L101.624377,47.203281 L101.029233,44.5342492 L97.8385152,44.4704708 L96.5298015,45.9239447 L90.9295787,35.2733032 L91.5281919,34.7351741 C101.574663,25.7038017 107.87143,19.6152256 108.715239,17.9995211 C110.890433,13.8345113 110.872283,5.38158338 109.096341,3.78251803 C107.347407,2.20777091 99.0972129,3.16120887 95.1474582,5.78303656 C93.6427339,6.78186514 88.3218668,13.5744473 80.4981824,24.3521886 L80.0255103,25.0033317 L67.3404651,19.946135 L69.1366844,17.9512314 L68.5415403,15.2821996 L65.3508229,15.2184212 L62.7439649,18.1136303 L56.811065,15.7483378 L58.8653407,13.4668334 L58.2701967,10.7978016 L55.0794793,10.7340233 L52.2145648,13.9158331 L39.9145272,9.01212891 L35.1936097,13.2100886 L71.2841555,37.236702 L70.6714256,38.1050649 C67.2592846,42.9407625 63.8321278,47.8485781 60.5575894,52.5739943 C59.4115131,54.2278724 58.3664047,55.7407758 57.4432095,57.0809019 C57.1201361,57.5498806 56.8353931,57.9637426 56.5915983,58.3185128 C56.4453924,58.5312715 56.345277,58.6771246 56.294147,58.7516936 L55.8152671,59.4501004 L55.036073,59.1185064 C54.910505,59.0650697 54.6713902,58.9641581 54.3326871,58.8225638 C53.7672261,58.5861736 53.1300506,58.3226656 52.4351337,58.0388365 C50.4497494,57.2279339 48.4005573,56.4170723 46.3998038,55.6607585 C45.7187781,55.403321 45.0536639,55.1561787 44.407163,54.9206369 C41.4974489,53.860531 39.0656532,53.0713617 37.2838107,52.6324041 C36.6359787,52.4728105 36.0851559,52.3627731 35.6453759,52.3040634 C35.9829427,52.6709253 36.4488338,53.1113552 37.0317083,53.6145416 C38.34883,54.7515919 40.2166877,56.1711895 42.5186138,57.8044495 C43.0419588,58.1757727 43.5849101,58.5561036 44.1456052,58.9443859 C46.208917,60.3732331 48.4214358,61.8478352 50.6341936,63.2842117 C51.4088301,63.7870547 52.1280539,64.2491287 52.773318,64.6599964 C53.1599569,64.9061861 53.4356268,65.0803507 53.5817977,65.1720657 L53.8449759,65.4086726 C53.9510893,65.5435534 54.1524606,65.7979147 54.4369078,66.1546609 C54.9116182,66.7500305 55.4450749,67.4136396 56.0250816,68.1283781 C57.6819113,70.1700783 59.3790381,72.2115731 61.0183819,74.1154696 C61.4191455,74.5809073 61.8122593,75.0331634 62.1968201,75.4709786 C64.1286848,77.6703701 65.796333,79.4510411 67.1136439,80.6967779 C67.7198882,81.2700829 68.24265,81.7207924 68.6683823,82.0370274 C68.5661699,81.61501 68.4039592,81.0921896 68.1847341,80.4816702 C67.5715484,78.7740106 66.5453227,76.4606263 65.2009685,73.7013665 C64.9358675,73.157252 64.6600691,72.5992997 64.3746374,72.0292279 C63.3882872,70.0592626 62.3307183,68.0304293 61.2730739,66.0570364 C60.9028599,65.3662772 60.5591465,64.7319114 60.2508003,64.1681626 C60.0660952,63.8304666 59.9344511,63.5917587 59.8647277,63.4662466 L59.4535023,62.725982 L60.0980265,62.1767221 C60.1663764,62.1184748 60.3000684,62.0044278 60.4950893,61.8378862 C60.8202824,61.5601814 61.1996448,61.2358523 61.6295341,60.8678872 C62.8579611,59.8164113 64.2447966,58.6262464 65.7608994,57.3213027 C70.092671,53.5928498 74.5919368,49.6921063 79.0254801,45.8104359 L79.8250306,45.1104109 L106.893164,77.7686568 L110.574656,72.6347948 L104.694314,61.4514155 L108.035902,57.7402058 L107.440758,55.071174 L104.250041,55.0073956 L102.391383,57.0716443 Z M102.840645,53.4811327 L103.345665,52.9202508 L109.106276,53.0353981 L110.287196,58.3314465 L107.196104,61.7644516 L113,72.8024438 L107.011613,81.153283 L79.5884108,48.0666388 C75.4099027,51.720719 71.1860823,55.3811297 67.1103943,58.8891657 C65.5928093,60.1953851 64.2045423,61.3867785 62.9747182,62.4394502 C62.647047,62.7199214 62.3486532,62.9751078 62.0811422,63.2036922 C62.3882289,63.7653335 62.7294387,64.3952009 63.0963706,65.0798364 C64.1624457,67.0689595 65.2285963,69.1142559 66.2243842,71.1030704 C66.5130748,71.6796511 66.792174,72.2442812 67.0606414,72.795305 C68.4350987,75.6163509 69.487766,77.9893416 70.1316753,79.7825633 C71.1457316,82.6066065 71.3315593,84.0906489 69.7825112,84.5147506 C68.2162871,84.9435548 65.5447647,82.4171857 60.6425924,76.8361551 C60.2534257,76.3930962 59.8558633,75.9357223 59.4507702,75.4652564 C57.7968746,73.5444598 56.0873647,71.4880691 54.4187804,69.4318837 C53.8348922,68.7123622 53.2977421,68.0441585 52.8194616,67.4443115 C52.6111719,67.18308 52.4465959,66.9757106 52.3303594,66.8286988 C52.1709528,66.7281313 51.9458865,66.5855523 51.6622367,66.4049402 C51.0120472,65.9909363 50.2877654,65.5256128 49.5078575,65.0193479 C47.2790599,63.5725594 45.0500232,62.0869484 42.9678833,60.6450628 C42.4008943,60.2524219 41.8515202,59.8675919 41.3215642,59.4915781 C35.4867502,55.3516674 32.8066724,53.0379985 33.0661843,51.4552214 C33.3271318,49.8636887 34.8328001,49.8980952 37.7786306,50.6238017 C39.6481096,51.0843485 42.1414813,51.8935005 45.1153077,52.9769646 C45.7698521,53.215437 46.4427092,53.4654563 47.1312682,53.7257416 C49.1506447,54.4890951 51.2162425,55.3064484 53.2173199,56.1237606 C53.8911694,56.3989851 54.5113603,56.6553385 55.0655109,56.886789 C55.266999,56.5937691 55.4921045,56.2666947 55.7396553,55.9073458 C56.6638985,54.5656984 57.710084,53.0512358 58.8572796,51.3957425 C61.9390851,46.948455 65.1559434,42.3397613 68.3687186,37.7809443 L31.8151436,13.4460777 L39.4942791,6.61759541 L51.6417353,11.4604694 L54.175104,8.6468784 L59.9357147,8.76202568 L61.1166342,14.0580741 L60.3349467,14.926226 L62.1711354,15.6582665 L64.4464476,13.1312763 L70.2070583,13.2464236 L71.3879778,18.542472 L70.8643468,19.1240232 L79.2971162,22.4859484 C87.1577842,11.6775316 92.2090151,5.2506377 94.0034039,4.05953128 C98.6499486,0.97517782 107.884755,-0.0920474146 110.480541,2.24520828 C113.092294,4.59684158 113.112589,14.0482424 110.548889,18.9571528 C109.543664,20.8819322 103.586346,26.6606345 93.5096102,35.735141 L97.0060538,42.3847634 L102.694751,42.4984732 L103.87567,47.7945216 L101.334523,50.616752 L102.840645,53.4811327 Z M44.2018977,70.9865627 L47.6496549,70.9865627 C47.6496549,71.1462591 47.5424182,72.4815751 47.5174444,72.8482598 C47.415136,74.3504291 47.3693671,75.7704768 47.4047412,77.1417884 L43.9581306,77.2306966 C43.9195834,75.7363804 43.968621,74.2149178 44.0776558,72.6139858 C44.1146148,72.0713254 44.2018977,70.9844752 44.2018977,70.9865627 Z M45.311297,84.0812652 L48.337471,82.4292057 C48.4977053,82.7227163 48.652148,82.8968843 48.7468451,82.9537329 C49.7560639,83.5196864 50.8663063,84.0528041 52.7876675,84.9174178 L51.3728281,88.061501 C49.3634993,87.1573018 48.1834021,86.5906412 47.0234706,85.9395637 C46.3111171,85.5165532 45.7484482,84.8820207 45.311297,84.0812652 Z M56.9193314,90.6487386 L58.4912045,87.5801486 C60.7398318,88.731999 62.5547498,89.8628152 64.0518583,91.1097165 L61.8453777,93.7589566 C60.5720476,92.6984343 58.9603879,91.6942617 56.9193314,90.6487386 Z M64.8745116,97.9483923 L68.1883405,96.996779 C68.4349699,97.8556234 68.5603486,98.7466456 68.5603486,99.6677069 C68.5603486,101.206666 68.432861,102.631237 68.1791096,103.943644 L64.7940446,103.289149 C65.004645,102.199919 65.1125914,100.993705 65.1125914,99.6677069 C65.1125914,99.0685185 65.0322855,98.4978126 64.8745116,97.9483923 Z M62.6213582,108.129054 L65.2455462,110.365272 C63.6938316,112.1862 61.6494682,113.456973 59.1928732,114.210517 L58.1817942,110.914345 C60.0368208,110.345328 61.5165676,109.42552 62.6213582,108.129054 Z M52.4982554,111.853778 L52.7491865,115.292392 C50.3661087,115.466295 48.1612197,115.3713 46.125648,115.013435 L46.7226266,111.617755 C48.4693259,111.924834 50.3903652,112.0076 52.4982554,111.853778 Z M41.4375159,109.727926 L39.7000203,112.705868 C37.7375179,111.560836 36.0264756,110.064695 34.5421587,108.237758 L37.2180613,106.063689 C38.4475764,107.577009 39.8444617,108.79845 41.4375159,109.727926 Z M34.2219983,101.128106 L31.0887956,102.56688 C30.2477201,100.735279 29.5212636,98.7237001 28.8756612,96.4950574 L32.1872673,95.5357377 C32.7879926,97.6094631 33.4573619,99.4629658 34.2219983,101.128106 Z M30.7682814,89.6736104 L27.3910117,90.367209 C27.0337004,88.627389 26.7670954,87.1806594 26.2437317,84.2207861 L29.6388233,83.6204673 C30.1567982,86.5498641 30.4193402,87.974546 30.7682814,89.6736104 Z M28.4711137,77.4122738 L25.0993058,78.1319551 C24.5860545,75.7273006 24.0702472,73.9032149 23.4742961,72.4720254 L26.6571395,71.146681 C27.3491544,72.8085697 27.9174432,74.8182498 28.4711137,77.4122738 Z M21.8487755,65.7142431 L20.332489,68.8106773 C18.4227552,67.8755037 16.6321842,67.3294019 14.9685382,67.1419167 L15.3546406,63.7158468 C17.42624,63.9493066 19.5958383,64.611007 21.8487755,65.7142431 Z M8.34650193,64.7343161 L9.75295899,67.882158 C8.14905686,68.5987821 6.7611585,69.7722506 5.66684765,71.2807367 L2.87608642,69.2562166 C4.31243129,67.2762433 6.16721679,65.7080217 8.34650193,64.7343161 Z M0.244340017,75.8024693 L3.67926299,76.0996795 C3.54509154,77.6503284 3.83911579,79.4345395 4.55023065,81.5273773 L1.28577424,82.6365906 C0.433109888,80.1271673 0.0639648438,77.8871048 0.244340017,75.8024693 Z M3.85102001,88.5363712 L6.92974665,86.984446 C7.51767468,88.1507842 7.88069114,88.837426 9.22531326,91.3508148 C9.46291841,91.7949501 9.63614389,92.1194619 9.8066707,92.4402648 L6.76229658,94.0585404 C6.59348253,93.7409597 6.42154473,93.4188601 6.18526037,92.9771936 C4.82556677,90.435633 4.45669357,89.7379132 3.85102001,88.5363712 Z M9.49929642,99.5475491 L12.6480485,98.143131 C13.6569599,100.405144 14.366512,102.425994 14.7838841,104.344026 L11.4149663,105.077117 C11.0537585,103.417188 10.4193304,101.610296 9.49929642,99.5475491 Z M11.481414,110.444152 L14.8251508,111.28466 C14.2594572,113.53512 13.0669665,115.569972 11.2154338,117.377994 L8.80665743,114.91125 C10.2091067,113.541758 11.0735707,112.066647 11.481414,110.444152 Z M4.05718591,118.147208 L5.60020368,121.230408 C4.82881517,121.616457 4.00815802,121.987766 3.13714247,122.344575 L1.83018891,119.154136 C2.62274243,118.829469 3.36472934,118.493754 4.05718591,118.147208 Z" id="Combined-Shape"></path>
        </g>
    </g>
</svg>