<?xml version="1.0" encoding="UTF-8"?>
<svg width="148px" height="123px" viewBox="0 0 148 123" version="1.1" xmlns="http://www.w3.org/2000/svg" xmlns:xlink="http://www.w3.org/1999/xlink">
    <!-- Generator: Sketch 42 (36781) - http://www.bohemiancoding.com/sketch -->
    <title>Stats</title>
    <desc>Created with Sketch.</desc>
    <defs></defs>
    <g id="Icons" stroke="none" stroke-width="1" fill="none" fill-rule="evenodd">
        <g id="Stats" transform="translate(-15.000000, -4.000000)" stroke="#0FB6BC" stroke-width="2">
            <ellipse id="Oval-3" transform="translate(61.593929, 61.472550) rotate(-60.000000) translate(-61.593929, -61.472550) " cx="61.5939286" cy="61.47255" rx="44.7695796" ry="44.7673081"></ellipse>
            <ellipse id="Oval-3-Copy-2" transform="translate(61.584534, 61.475063) rotate(-60.000000) translate(-61.584534, -61.475063) " cx="61.5845343" cy="61.4750633" rx="37.1315263" ry="37.1296423"></ellipse>
            <polygon id="Combined-Shape" transform="translate(106.183591, 87.662112) rotate(-420.000000) translate(-106.183591, -87.662112) " points="106.183591 81.6473977 101.43501 81.5574795 95.7935116 86.3752749 95.7935116 93.7667453 106.183591 93.5293102 116.573671 93.7667453 116.573671 86.3752749 110.932172 81.5574795"></polygon>
            <rect id="Rectangle-8" transform="translate(128.383580, 100.580832) rotate(-420.000000) translate(-128.383580, -100.580832) " x="118.009269" y="80.2320555" width="20.7486211" height="40.6975528"></rect>
            <rect id="Rectangle-8-Copy" transform="translate(151.305639, 113.807537) rotate(-420.000000) translate(-151.305639, -113.807537) " x="140.931328" y="107.702904" width="20.7486211" height="12.2092658"></rect>
            <path d="M37.6471465,79.3232014 C37.6471465,78.2772615 38.4913405,77.4293597 39.5350538,77.4293597 L81.0375639,77.4293597 C82.0802264,77.4293597 82.9254713,78.282216 82.9254713,79.3232014 L82.9254713,80.7002855 C82.9254713,81.7462254 82.0812772,82.5941272 81.0375639,82.5941272 L39.5350538,82.5941272 C38.4923914,82.5941272 37.6471465,81.7412709 37.6471465,80.7002855 L37.6471465,79.3232014 Z M39.7120623,62.3688507 C39.7120623,61.3256673 40.5630442,60.48 41.596632,60.48 L45.0002964,60.48 C46.0411156,60.48 46.8848662,61.3336505 46.8848662,62.3688507 L46.8848662,77.2297569 L39.7120623,77.2297569 L39.7120623,62.3688507 Z M51.0583658,49.1476998 C51.0583658,48.0996292 51.9093477,47.25 52.9429356,47.25 L56.3465999,47.25 C57.3874191,47.25 58.2311697,48.0987594 58.2311697,49.1476998 L58.2311697,77.2232492 L51.0583658,77.2232492 L51.0583658,49.1476998 Z M72.4902724,39.0508495 C72.4902724,38.012085 73.3412543,37.17 74.3748422,37.17 L77.7785065,37.17 C78.8193257,37.17 79.6630763,38.0077807 79.6630763,39.0508495 L79.6630763,77.28126 L72.4902724,77.28126 L72.4902724,39.0508495 Z M61.7743191,56.7072527 C61.7743191,55.659429 62.625301,54.81 63.6588889,54.81 L67.0625532,54.81 C68.1033724,54.81 68.947123,55.6637898 68.947123,56.7072527 L68.947123,77.2899369 L61.7743191,77.2899369 L61.7743191,56.7072527 Z" id="Combined-Shape"></path>
        </g>
    </g>
</svg>