<?xml version="1.0" encoding="UTF-8"?>
<svg width="108px" height="123px" viewBox="0 0 108 123" version="1.1" xmlns="http://www.w3.org/2000/svg" xmlns:xlink="http://www.w3.org/1999/xlink">
    <!-- Generator: Sketch 42 (36781) - http://www.bohemiancoding.com/sketch -->
    <title>Video</title>
    <desc>Created with Sketch.</desc>
    <defs>
        <path d="M95.5763258,6.21724894e-15 L77.158357,18.4179688 L62.9827236,18.4179688 L81.4006923,-8.8817842e-16 L95.5763258,0 Z M66.2066433,-1.37667655e-14 L49.0052479,17.2013954 L50.2218213,18.4179687 L32.0236719,18.4179688 L50.4416406,-4.4408921e-16 L66.2066433,0 Z M35.2475916,-8.8817842e-16 L18.0461962,17.2013954 L19.2627696,18.4179688 L2.07239593,18.4179688 L20.4903647,1.77635684e-15 L35.2475916,0 Z" id="path-1"></path>
        <path d="M95.5763258,1.34114941e-13 L77.158357,18.4179688 L62.9827236,18.4179688 L81.4006923,1.43440815e-13 L95.5763258,1.3500312e-13 Z M66.2066433,1.3500312e-13 L49.0052479,17.2013954 L50.2218213,18.4179688 L32.0236719,18.4179688 L50.4416406,1.31894495e-13 L66.2066433,1.3500312e-13 Z M35.2475916,1.35891298e-13 L18.0461962,17.2013954 L19.2627696,18.4179688 L2.07239593,18.4179688 L20.4903647,1.34114941e-13 L35.2475916,1.3500312e-13 Z" id="path-3"></path>
    </defs>
    <g id="Icons" stroke="none" stroke-width="1" fill="none" fill-rule="evenodd">
        <g id="Video" transform="translate(0.000000, 2.000000)">
            <rect id="Rectangle-Copy-7" stroke="#0FB6BC" stroke-width="2" x="5.93103448" y="63.3398438" width="99.0689655" height="51.6601562" rx="0.900000036"></rect>
            <g id="Clack-1-Copy-3" transform="translate(5.931034, 44.921875)">
                <rect id="Rectangle-Copy-6" stroke="#0FB6BC" stroke-width="2" x="0" y="0" width="99.0689655" height="18.4179688" rx="1.35000005"></rect>
                <mask id="mask-2" fill="white">
                    <use xlink:href="#path-1"></use>
                </mask>
                <use id="Combined-Shape" stroke="#0FB6BC" stroke-width="2" xlink:href="#path-1"></use>
            </g>
            <g id="Clack-1-Copy-2" transform="translate(50.850759, 22.144214) scale(-1, 1) rotate(15.000000) translate(-50.850759, -22.144214) translate(0.850759, 12.644214)">
                <rect id="Rectangle-Copy-6" stroke="#0FB6BC" stroke-width="2" x="-2.7000624e-13" y="4.01456646e-13" width="99.0689655" height="18.4179688" rx="1.35000005"></rect>
                <mask id="mask-4" fill="white">
                    <use xlink:href="#path-3"></use>
                </mask>
                <use id="Combined-Shape" stroke="#0FB6BC" stroke-width="2" xlink:href="#path-3"></use>
            </g>
            <rect id="Rectangle-2-Copy" stroke="#0FB6BC" stroke-width="2" fill="#FFFFFF" x="32.3793103" y="75.9179688" width="45.2758621" height="26.953125" rx="6.21000012"></rect>
            <polygon id="Triangle-Copy" stroke="#0FB6BC" stroke-width="2" stroke-linecap="round" stroke-linejoin="bevel" transform="translate(57.482759, 89.394531) rotate(-270.000000) translate(-57.482759, -89.394531) " points="57.4827586 84.9023438 64.6551724 93.8867188 50.3103448 93.8867188"></polygon>
        </g>
    </g>
</svg>